# xmcd
#
# Track frame offsets: 
#        150
#        12312
#        17407
#        27405
#        40027
#        49860
#        62225
#        73142
#        84980
#        99272
#        113257
#        125997
#        138555
#        151287
#        163565
#        176587
#        188505
#        202427
#        216410
#        230100
#        243307
#
# Disc length: 3443 seconds
#
# Revision: 2
# Processed by: cddbd v1.5.2PL0 Copyright (c) Steve Scherf et al.
# Submitted via: ExactAudioCopy v0.99pb4
#
DISCID=260d7115
DTITLE=Various Artist - The Story of Jazz Vol.1 - In The Beginning
DYEAR=1900
DGENRE=Jazz
TTITLE0=Southern Folk Heritage In The Field - Oree
TTITLE1=Southern Folk Heritage In The Field - The Wild Ox Moan
TTITLE2=Rhythmic Chants OF Southern Negro Street Vendors - Street Crie
TTITLE2=s Of Charleston
TTITLE3=Rev. J.M. Gates And Congregation - I'm Going To Heaven If It T
TTITLE3=akes My Life
TTITLE4=Scott Joplin - The Cascades
TTITLE5=Jelly Roll Morton - Perfect Rag
TTITLE6=James P. Johnson - Harlem Strut
TTITLE7=George Gershwin - When Do We Dance
TTITLE8=Pete Johnson - Lone Star Blues
TTITLE9=Jimmy Yancey - The Fives
TTITLE10=Ida Cox - I've Got The Blues For Ramoart Street
TTITLE11=Original Dixieland Jazzband - Clarinet Marmalade
TTITLE12=King Oliver's Jazzband - Sweet Lovin' Man
TTITLE13=Doc Cook's Dreamland Orchestra - Memphis Maybe Man
TTITLE14=The Wolverines - Royal Garden Blues
TTITLE15=Freddie Keppard's Jazz Cardinals - Salty
TTITLE16=Louis Armstrong's Hot 7 - Alligator Crawl
TTITLE17=New Orleans Owls - That's A Plenty
TTITLE18=Monk Hazel and His Bienville Roof Orchestra - High Society
TTITLE19=Johnny Dood's Orchestra - Too Tight
TTITLE20=Jones and Collins Astoria Hot 8 - Damp Weather
EXTD=
EXTT0=
EXTT1=
EXTT2=
EXTT3=
EXTT4=
EXTT5=
EXTT6=
EXTT7=
EXTT8=
EXTT9=
EXTT10=
EXTT11=
EXTT12=
EXTT13=
EXTT14=
EXTT15=
EXTT16=
EXTT17=
EXTT18=
EXTT19=
EXTT20=
PLAYORDER=
